<?xml version="1.0" encoding="utf-8"?>
<!-- Generator: Adobe Illustrator 21.0.0, SVG Export Plug-In . SVG Version: 6.00 Build 0)  -->
<svg version="1.1" id="Train" xmlns="http://www.w3.org/2000/svg" xmlns:xlink="http://www.w3.org/1999/xlink" x="0px" y="0px"
	 viewBox="0 0 300 300" style="enable-background:new 0 0 300 300;" xml:space="preserve">
<style type="text/css">
	.st0{display:none;fill:#FFFFFF;}
	.st1{fill:#EE3729;}
	.st2{fill:#F27757;}
	.st3{fill:#4F79BA;}
	.st4{fill:#6DA9DB;}
	.st5{display:none;fill:#76ADDA;}
	.st6{fill:#070808;}
	.st7{fill:#6DA8DB;}
	.st8{fill:#4F7ABB;}
	.st9{fill:#C0BCBB;}
	.st10{fill:#C3BFBF;}
	.st11{fill:#FAF0EA;}
</style>
<g>
	<path class="st0" d="M108.3,248.9c0-70.1,0-139.9,0-210c153.9,0,307.6,0,461.7,0c0,69.8,0,139.7,0,210
		C416.3,248.9,262.5,248.9,108.3,248.9z M427.3,152.7c-0.3-0.1-0.6-0.2-0.9-0.4c-0.3-1.6,1.9-4.7-2.3-4c-0.3,0.4-0.5,0.8-0.8,1.2
		c0,10-0.1,19.9-0.1,29.9c0,2.1-0.7,4.8,3.1,4.3c0.3-0.4,0.6-0.7,0.9-1.1c0-0.7,0-1.4,0-2.1c0-0.4,0-0.8-0.1-1.2
		c0-4.8,0.1-9.6,0.1-14.4c0.1-9.8,5.5-14.5,15.2-13.2c1.2,0.2,2.5-0.4,4.7-0.8c-7.1-4.9-12.1-4.4-18.4,0.8
		C428.2,152.1,427.7,152.4,427.3,152.7z M382.1,171.8L382.1,171.8c-4.9,1.5-9.8,3.1-14.7,4.7c-0.7-0.5-1.4-1-2.1-1.5
		c0-0.7,0-1.4,0-2.2c1.6-0.8,3.3-1.7,4.9-2.5c0.6-0.3,1.1-0.6,1.7-0.9c3.3-1.8,6.5-3.5,9.8-5.3c2.1,0,4.2,0,6.3,0
		c0.4-0.7,0.7-1.4,1.1-2.1c-0.7-0.2-1.5-0.3-2.2-0.5c0.5-0.3,1.1-0.6,1.6-0.9c1.8-0.4,3.5-0.8,5.3-1.3c-0.1-0.5-0.2-1.1-0.3-1.6
		c-1.3-0.1-2.6-0.3-4-0.4c-0.4-0.7-0.8-1.3-1.1-2c-0.6-0.8-1.3-1.6-1.9-2.5c-1.6-1.2-3.2-2.5-5-3.5c-8.1-4.7-18.5-2.6-24.4,4.9
		c-5.8,7.3-5.2,18.1,1.3,24.9c7.8,8.1,18.6,7.7,28.6-0.9c4.1-1.5,5.8-4.9,3.9-7.6c-0.1-1-0.2-1.9-0.3-2.9c-0.3-0.4-0.5-0.8-0.8-1.4
		c-0.5,0.4-0.9,0.7-1.2,1.1c-1,0-2,0-3,0c-1.3,0.1-2.6,0.3-4.3,0.5C381.6,169.5,381.8,170.7,382.1,171.8z M323.8,153.8
		c0,8.6,0,17.2,0,25.8c0,1.4,0,2.7,0,4c2.7,0,4.8,0,7,0c0-11.9,0-23.5,0-35.1c-2.5,0-4.8,0-7.5,0
		C323.5,150.6,323.7,152.2,323.8,153.8z M339.4,182.8c2.2,0.5,4.3,0.9,6.8,1.4c0-17.3,0-33.8,0-50.2c-2-0.2-4-0.3-5.9-0.5
		c-0.3,0.5-0.7,0.9-1,1.4C339.3,150.9,339.4,166.9,339.4,182.8z M145.7,97.4c3,9.6,5.9,19.1,8.9,28.7c-4.7,3.5-10,6.3-13.9,10.5
		c-10.2,11.1-13.9,33.1,4,50c-4.5,4.3-9,8.5-14.6,13.8c12.6,12.1,24.3,23.5,36.1,34.7c0.3,0.3,1.2-0.1,1.9-0.2
		c11.3-11.9,22.7-23.8,34.4-36c-3.9-3.9-8.3-8.1-12.6-12.3c7.3-7.3,12.1-15.8,12.2-26.4c0.1-16.1-8.2-27-22.1-34.2
		c2.9-9.6,5.9-19.1,8.8-28.7c0.3-10.4-4.9-15.9-14.9-15.9c-4.4,0-8.8,0-13.2,0C150.4,81.5,145.4,86.9,145.7,97.4z M259.9,151.7
		c0,9.6,0,19.2,0,28.8c0,1.1,0,2.2,0,3.2c2.7,0,4.8,0,7.1,0c-0.1-1.3-0.2-2.3-0.3-3.4c0.2-0.3,0.2-0.6,0-0.9c0-5.1,0-10.3,0-15.4
		c0-0.4,0-0.8,0-1.2c1.9-4.7,4.3-9,10.4-7.7c5.9,1.3,6.6,6.1,6.5,11.2c-0.1,5.8,0,11.6,0,17.4c3.1,0,5.2,0,7.9,0
		c0-6.3,0.1-12.3,0-18.3c-0.1-4.9,1.4-8.9,6.5-10.2c5.4-1.4,8.2,1.9,9.8,6.5c0.1,5.9,0.1,11.8,0.2,17.7c0,1.4,0,2.8,0,4.2
		c2.6,0,4.9,0,7.4,0c0-6.7,0-12.9,0-19.1c0-1.1,0-2.2-0.1-3.3c-0.9-8.9-7.5-14.7-16.2-13.3c-3.9,0.6-7.5,3.1-11.6,4.9
		c-5.8-6.4-10.5-7-18.7-2.6c-3.5-0.9-5.9-1.6-9-2.5C259.8,149.6,259.9,150.7,259.9,151.7z M217.4,173.8c1.6,2.3,2.6,4.2,4.1,5.8
		c6.3,7,20.4,7.5,27.3,1c8.3-7.8,5-21.9-6.1-25.4c-5.3-1.7-10.7-3-17.9-5.1c2.1-4.2,2.8-7.9,5-9.3c6.2-4.1,11.9-1.2,16.9,3.6
		c1.7-1.6,3.1-2.9,4.3-4.1c-4.2-9.5-17.6-10.2-24.6-6.3c-5.3,2.9-7.2,7.6-7,13.4c0.2,5.8,3.1,9.9,8.5,11.8c3.5,1.2,7.2,1.6,10.7,2.6
		c4.4,1.2,8.2,3.2,7.5,8.6c-0.6,5.2-4.6,6.7-9.1,7.1c-6.4,0.6-10.8-2.8-14.5-7.8C220.8,171.1,219.4,172.2,217.4,173.8z M208.9,70.4
		c-7.6-8.6-9.6-9.1-22.5-6.3c-9.6-5.6-17.4-6.4-23.6-1.7c-4.3,3.3-7.5,7.4-7,13.6c23,0,45.6,0,68.2,0
		C223.7,67.8,217.3,65.5,208.9,70.4z M479.2,153.4c-11.4-7.7-20.7-7.7-27.5-0.3c-6.2,6.9-6.9,18.5-0.6,24.7
		c3.1,3.1,7.7,6.2,11.7,6.3c5.4,0.2,11-2.5,16.5-4c0.1,0.3,0.5,1.9,1,3.6c3.2-1.4,4.9-20.3,3.2-33c-0.2-1.2-1.5-2.3-2.3-3.4
		c-0.4,0.2-0.9,0.4-1.3,0.6C479.7,149.8,479.4,151.6,479.2,153.4z M405.6,137.1c0,16,0,31,0,46.6c1.9-0.1,3.2-0.2,5-0.3
		c0-15.5,0-30.5,0-46.1c6.1,0,11.5,0,17.3,0c0.1-1.5,0.2-2.5,0.3-4.2c-13,0-25.7-0.1-38.3,0.1c-0.8,0-1.6,1.8-3.4,3.9
		C393.7,137.1,399.1,137.1,405.6,137.1z M510.2,183.7c0.2-1.7,0.4-3.4,0.4-5.1c0.1-4.6-0.1-9.2,0.1-13.8c0.2-8.4,5.1-13.3,13-13.3
		c7.9,0,11.9,4.2,12.2,13.1c0.2,5.2-0.1,10.3,0.1,15.5c0,1.3,1,2.6,1.5,3.9c0.6-0.1,1.3-0.3,1.9-0.4c0-7.3,0.1-14.6,0-21.9
		c-0.2-7-4.1-11.7-10.9-13.6c-6.6-1.8-12.3,0-16.8,4c-1.2-1.5-2.2-2.7-3.7-4.6C506.2,158.2,506.9,180.9,510.2,183.7z M493.7,148
		c0,11.9,0,23.7,0,35.4c0.6,0.2,1.1,0.4,1.7,0.6c0.6-1.3,1.6-2.6,1.7-4C498.4,159.6,497.4,149.3,493.7,148z M334.2,137.7
		c-3.2-2.2-5.3-4.6-6.7-4.3c-1.9,0.4-4.1,2.8-4.5,4.7c-0.2,1.2,2.7,4.1,4.3,4.2C329,142.3,330.9,140,334.2,137.7z M243.8,76
		c-1.6-4.6-4.1-6.5-7.7-6.1c-3.2,0.3-5.7,2.1-5.5,6.1C234.9,76,238.9,76,243.8,76z M492.7,138.4c0.6,0.5,1.2,1,1.9,1.5
		c1.2-1.2,2.4-2.4,3.7-3.7c-1.2-1.1-2.4-2.2-4.8-4.2C493.1,135.4,492.9,136.9,492.7,138.4z M393.2,153.6c0-0.1,0-0.3,0-0.4
		c-0.5,0-1.1,0-1.6,0c0,0.1,0,0.3,0,0.4C392.2,153.6,392.7,153.6,393.2,153.6z"/>
	<g id="TrainBody">
		<path class="st1" d="M144.7,186.6c-17.9-16.9-14.2-38.9-4-50c3.9-4.2,9.2-7.1,13.9-10.5c4.1-0.8,8.1-1.5,12.2-2.3
			c0.3,0.2,0.6,0.4,1,0.5c0.1,17,0.2,33.9,0.3,50.9c-1,0.1-2.1,0.3-3.1,0.4c-0.6-0.1-1.3-0.2-1.9-0.3c-5.9-2.9-11.7-5.8-19.1-9.4
			c1.1,2.4,1.5,4.4,2.7,5.6c5.6,6.3,13.1,8.5,21.2,9c0,4.6,0,9.1-0.1,13.7C158.9,195.4,151.7,191.2,144.7,186.6z"/>
		<path class="st2" d="M168.1,175.3c-0.1-17-0.2-33.9-0.3-50.9c4.1,0.6,8.1,1.1,12.2,1.7c13.9,7.2,22.2,18.1,22.1,34.2
			c-0.1,10.6-4.9,19.1-12.2,26.4c-7.3,2.8-14.6,5.5-22,8.3c0-0.2-0.1-0.4-0.1-0.6c0-4.6,0-9.1,0.1-13.7c7.9-1.1,14.9-4,20.1-10.3
			c1.5-1.9,3.7-4.2-0.7-6.2C182.1,169.9,176.8,175.7,168.1,175.3z"/>
	</g>
	<path class="st3" d="M144.7,186.6c7,4.6,14.2,8.8,23.1,7.7c0,0.2,0.1,0.4,0.1,0.6c-0.3,7.5-0.9,15-0.9,22.5
		c0,5.8,0.7,11.6,1.1,17.5c-0.6,0.1-1.6,0.5-1.9,0.2c-11.8-11.3-23.5-22.6-36.1-34.7C135.7,195.1,140.2,190.9,144.7,186.6z"/>
	<path class="st4" d="M168,235c-0.4-5.8-1.1-11.6-1.1-17.5c0-7.5,0.6-15,0.9-22.5c7.3-2.8,14.6-5.5,22-8.3
		c4.3,4.2,8.6,8.4,12.6,12.3C190.7,211.2,179.3,223.1,168,235z"/>
	<path class="st5" d="M479.2,153.4c0.2-1.8,0.5-3.6,0.7-5.3c0.4-0.2,0.9-0.4,1.3-0.6c0.8,1.1,2.2,2.2,2.3,3.4
		c1.7,12.6,0.1,31.5-3.2,33c-0.5-1.7-0.9-3.3-1-3.6c-5.6,1.5-11.1,4.1-16.5,4c-4-0.1-8.6-3.3-11.7-6.3c-6.4-6.3-5.7-17.9,0.6-24.7
		C458.5,145.7,467.8,145.7,479.2,153.4z M465.4,151.5c-8.6,0-14.7,6-14.7,14.5c0,8.5,6.1,14.7,14.6,14.7c8.4,0,14.3-5.9,14.4-14.3
		C479.8,157.6,473.9,151.5,465.4,151.5z"/>
	<g id="Chimney">
		<path class="st6" d="M145.7,97.4c-0.3-10.5,4.7-15.9,14.8-15.9c4.4,0,8.8,0,13.2,0c10.1,0,15.2,5.5,14.9,15.9
			c-7,0-13.9,0.1-20.9,0.1C160.5,97.5,153.1,97.5,145.7,97.4z"/>
		<path class="st7" d="M167.9,97.5c7,0,13.9-0.1,20.9-0.1c-2.9,9.6-5.9,19.1-8.8,28.7c-4.1-0.6-8.1-1.1-12.2-1.7
			c-0.3-0.1-0.6-0.3-1-0.5c0-2-0.1-4.1,0-6.1C167.2,111,167.5,104.3,167.9,97.5z"/>
		<path class="st8" d="M167.9,97.5c-0.4,6.8-0.7,13.5-1,20.3c-0.1,2,0,4.1,0,6.1c-4.1,0.8-8.1,1.5-12.2,2.3
			c-3-9.6-5.9-19.1-8.9-28.7C153.1,97.5,160.5,97.5,167.9,97.5z"/>
	</g>
	<g id="Clouds">
		<path class="st9" d="M208.9,70.4c8.4-5,14.7-2.6,15.1,5.6c-22.6,0-45.2,0-68.2,0c-0.5-6.2,2.7-10.3,7-13.6
			c6.1-4.7,14-3.9,23.6,1.7C199.3,61.3,201.3,61.8,208.9,70.4z"/>
		<path class="st10" d="M243.8,76c-5,0-8.9,0-13.2,0c-0.2-4,2.2-5.8,5.5-6.1C239.7,69.5,242.2,71.5,243.8,76z"/>
	</g>
	<path class="st11" d="M168.1,175.3c8.7,0.4,14-5.4,19.1-11.1c4.4,2,2.3,4.3,0.7,6.2c-5.2,6.3-12.2,9.3-20.1,10.3
		c-8.1-0.5-15.6-2.7-21.2-9c-1.1-1.3-1.5-3.2-2.7-5.6c7.3,3.6,13.2,6.5,19.1,9.4c0.6,0.1,1.3,0.2,1.9,0.3
		C166,175.6,167.1,175.4,168.1,175.3z"/>
	<path class="st2" d="M165,175.7c-0.6-0.1-1.3-0.2-1.9-0.3C163.7,175.5,164.4,175.6,165,175.7z"/>
</g>
</svg>
